<svg xmlns="http://www.w3.org/2000/svg" width="86" height="86" viewBox="0 0 86 86">
  <g id="happy-clients" transform="translate(-532 -631)">
    <circle id="Ellipse_2" data-name="Ellipse 2" cx="43" cy="43" r="43" transform="translate(532 631)" fill="#8d0034"/>
    <path id="Path_10" data-name="Path 10" d="M-635.548,106.977a14.025,14.025,0,0,0-7.181-12.141A13.244,13.244,0,0,0-655,94.1a13.649,13.649,0,0,0-4.046,2.652c-.6-.462-1.133-.917-1.709-1.308a13.16,13.16,0,0,0-12.211-1.726,13.833,13.833,0,0,0-9.3,10.468,11.2,11.2,0,0,0,.642,7.444,27.017,27.017,0,0,0,4.811,7.037,91.807,91.807,0,0,0,17.108,14.168,1.013,1.013,0,0,0,1.262-.014c.877-.61,1.77-1.195,2.644-1.808a90.033,90.033,0,0,0,13.574-11.4,30.075,30.075,0,0,0,5.286-7.155A10.933,10.933,0,0,0-635.548,106.977Zm-14.988-7.088a.9.9,0,0,1-.9-.889.88.88,0,0,1,.908-.93.892.892,0,0,1,.908.88A.927.927,0,0,1-650.535,99.888Zm10.057,7.226a.936.936,0,0,1-.847.858.9.9,0,0,1-.941-.742c-.1-.584-.114-1.186-.247-1.762a7.06,7.06,0,0,0-4.628-5.342c-.647-.242-.92-.719-.731-1.239s.69-.71,1.353-.486a9.071,9.071,0,0,1,6.042,8.242C-640.477,106.8-640.464,106.958-640.479,107.114Z" transform="translate(1234.61 561.065)" fill="#fff"/>
  </g>
</svg>
