<svg xmlns="http://www.w3.org/2000/svg" width="86" height="86" viewBox="0 0 86 86">
  <g id="year" transform="translate(-949 -613)">
    <circle id="Ellipse_3" data-name="Ellipse 3" cx="43" cy="43" r="43" transform="translate(949 613)" fill="#8d0034"/>
    <g id="Group_3" data-name="Group 3" transform="translate(969 605)">
      <path id="Path_11" data-name="Path 11" d="M211,271h8.025v2.675H211Z" transform="translate(-192.186 -218.6)" fill="#fff"/>
      <path id="Path_12" data-name="Path 12" d="M37.039,125.583H29.515v1.338a1.337,1.337,0,0,1-1.338,1.338h-10.7a1.337,1.337,0,0,1-1.338-1.338v-1.338H8.616a4.008,4.008,0,0,1-3.806-2.743L0,108.41v29.211a4.017,4.017,0,0,0,4.013,4.013H41.641a4.017,4.017,0,0,0,4.013-4.013V108.411l-4.81,14.429A4.007,4.007,0,0,1,37.039,125.583Z" transform="translate(0 -70.508)" fill="#fff"/>
      <path id="Path_13" data-name="Path 13" d="M51.685,31h-10.7a4.017,4.017,0,0,0-4.013,4.013V36.35H25.809l5.045,15.136a1.337,1.337,0,0,0,1.27.914h7.524V51.063a1.337,1.337,0,0,1,1.338-1.338h10.7a1.337,1.337,0,0,1,1.338,1.338V52.4h7.524a1.337,1.337,0,0,0,1.27-.914L66.861,36.35H55.7V35.013A4.017,4.017,0,0,0,51.685,31ZM39.647,36.35V35.013a1.338,1.338,0,0,1,1.338-1.338h10.7a1.338,1.338,0,0,1,1.338,1.338V36.35Z" transform="translate(-23.508)" fill="#fff"/>
    </g>
  </g>
</svg>
