<svg xmlns="http://www.w3.org/2000/svg" width="86" height="86" viewBox="0 0 86 86">
  <g id="staffs" transform="translate(-174 -630)">
    <circle id="Ellipse_1" data-name="Ellipse 1" cx="43" cy="43" r="43" transform="translate(174 630)" fill="#a40249"/>
    <g id="Group_1" data-name="Group 1" transform="translate(194 623.886)">
      <path id="Path_1" data-name="Path 1" d="M135.751,48.732c4.46,0,8.076-4.392,8.076-9.809s-1.187-9.809-8.076-9.809-8.076,4.392-8.076,9.809S131.291,48.732,135.751,48.732Z" transform="translate(-112.155 0)" fill="#fff"/>
      <path id="Path_2" data-name="Path 2" d="M99.12,210.524c-.149-9.437-1.382-12.126-10.813-13.828a6.626,6.626,0,0,1-8.844,0c-9.329,1.684-10.636,4.333-10.808,13.522-.014.75-.02.79-.023.7,0,.163,0,.465,0,.992,0,0,2.245,4.527,15.252,4.527s15.252-4.527,15.252-4.527c0-.338,0-.574,0-.733A5.936,5.936,0,0,1,99.12,210.524Z" transform="translate(-60.289 -147.212)" fill="#fff"/>
      <path id="Path_3" data-name="Path 3" d="M264.687,60.951c3.622,0,6.559-3.567,6.559-7.967s-.964-7.967-6.559-7.967a9.352,9.352,0,0,0-2.448.29,16.078,16.078,0,0,1,1.469,7.585,13.45,13.45,0,0,1-2.014,7.179A5.618,5.618,0,0,0,264.687,60.951Z" transform="translate(-229.884 -13.971)" fill="#fff"/>
      <path id="Path_4" data-name="Path 4" d="M296.49,192.356c-.122-7.665-1.122-9.849-8.783-11.231a4.592,4.592,0,0,1-3.592,1.374c-.1,0-.2,0-.3-.008a10.077,10.077,0,0,1,4.119,3.189c1.849,2.536,2.275,5.943,2.362,10.947,5.154-1.018,6.21-3.145,6.21-3.145,0-.277,0-.467,0-.6A4.534,4.534,0,0,1,296.49,192.356Z" transform="translate(-249.313 -133.533)" fill="#fff"/>
      <path id="Path_5" data-name="Path 5" d="M54.514,60.952a5.62,5.62,0,0,0,2.993-.878,13.45,13.45,0,0,1-2.014-7.179,16.08,16.08,0,0,1,1.469-7.585,9.35,9.35,0,0,0-2.448-.29c-5.595,0-6.559,3.567-6.559,7.967S50.892,60.952,54.514,60.952Z" transform="translate(-42.126 -13.972)" fill="#fff"/>
      <path id="Path_6" data-name="Path 6" d="M12.692,182.49c-.1,0-.2.008-.3.008A4.592,4.592,0,0,1,8.8,181.124C1.136,182.507.135,184.69.014,192.355a4.65,4.65,0,0,1-.014.53c0,.13,0,.32,0,.6,0,0,1.056,2.127,6.21,3.145.088-5,.513-8.411,2.363-10.947A10.077,10.077,0,0,1,12.692,182.49Z" transform="translate(0 -133.532)" fill="#fff"/>
    </g>
  </g>
</svg>
